PathFileType	4	(X/Y/Z)	Walk1.trc
DataRate	CameraRate	NumFrames	NumMarkers	Units	OrigDataRate	OrigDataStartFrame	OrigNumFrames
200.000000	200.000000	4	59	mm	200.000000	261	610
Frame#	Times		LFHD		RFHD		CLAV		STRN		LASI		RASI		RACR1		RUA1		RElbow		RElbowM		RFA1		RWRR		RWRU		RCAR		LACR1		LUA1		LElbow		LFA1		LWRR		LWRU		LCAR		RTH2		RTB1		RTB2		LTH1		LTH3		LTH2		LMFC		LTB1		LTB2		LTB4		LMT1		LToe		LLFC		LMT5		RTH3		LTB3		RTB4		RTB3		RMFC		LTH4		RTH4		RToe		RTH1		RMMAL		RLFC		RBHD		RMT1		RCAL		RBack		LMMAL		LLMAL		RPSI		C7		T10		LPSI		LCAL		LBHD		LElbowM
			X1	Y1	Z1	X2	Y2	Z2	X3	Y3	Z3	X4	Y4	Z4	X5	Y5	Z5	X6	Y6	Z6	X7	Y7	Z7	X8	Y8	Z8	X9	Y9	Z9	X10	Y10	Z10	X11	Y11	Z11	X12	Y12	Z12	X13	Y13	Z13	X14	Y14	Z14	X15	Y15	Z15	X16	Y16	Z16	X17	Y17	Z17	X18	Y18	Z18	X19	Y19	Z19	X20	Y20	Z20	X21	Y21	Z21	X22	Y22	Z22	X23	Y23	Z23	X24	Y24	Z24	X25	Y25	Z25	X26	Y26	Z26	X27	Y27	Z27	X28	Y28	Z28	X29	Y29	Z29	X30	Y30	Z30	X31	Y31	Z31	X32	Y32	Z32	X33	Y33	Z33	X34	Y34	Z34	X35	Y35	Z35	X36	Y36	Z36	X37	Y37	Z37	X38	Y38	Z38	X39	Y39	Z39	X40	Y40	Z40	X41	Y41	Z41	X42	Y42	Z42	X43	Y43	Z43	X44	Y44	Z44	X45	Y45	Z45	X46	Y46	Z46	X47	Y47	Z47	X48	Y48	Z48	X49	Y49	Z49	X50	Y50	Z50	X51	Y51	Z51	X52	Y52	Z52	X53	Y53	Z53	X54	Y54	Z54	X55	Y55	Z55	X56	Y56	Z56	X57	Y57	Z57	X58	Y58	Z58	X59	Y59	Z59

261	1.305	-519.69	1641.5	79.194	-518.29	1634.2	-20.632	-502.55	1377.2	47.521	-432.55	1219.6	47.586	-529.47	954.13	-131.11	-563.39	961.24	233.84	-627.54	1453.7	214.34	-624.8	1287.9	336.78	-575.24	1154	399.97	-602.87	1064.3	304.61	-488.31	1029.1	412.95	-420.51	931.37	342.5	-429.83	931.62	423.96	-362.72	873.21	392.91	-610.44	1451.3	-135.87	-680.6	1296.4	-229.39	-737.86	1141.9	-278.37	-754.5	1001.7	-289	-739.39	869.84	-227.41	-789.5	865.28	-283.48	-761.37	780.98	-255.1	-665.06	662.24	217.06	-769.86	343.88	112.31	-833.35	272.27	156.23	-532.48	735.13	-158.91	-459.12	583.38	-125.28	-445.94	687.72	-125.88	-413.24	509.46	35.749	-331.82	421.44	-67.897	-334.48	321.25	-97.502	-301.25	344.64	-50.471	-130.27	113.55	-31.562	-98.118	133.63	-77.509	-446.24	501	-118.73	-181.38	60.997	-89.815	-737.25	586.4	210.5	-276.51	262.5	-33.623	-813.06	269.41	98.784	-855.92	196.05	84.747	-777.56	488.37	37.099	-496.99	659.72	-143	-722.42	669.27	227.08	-788.88	23.902	87.819	-708.86	753.54	244.51	-949.28	94.963	16.149	-784.56	476.25	191.76	-660.41	1542.3	-28.331	-838.17	24.75	51.924	-1052	78.332	51.471	-761.41	1326.3	149.53	-260.25	107.52	58.11	-293.78	80.176	-19.251	-804.61	1010.7	49.981	-697.51	1452	40.885	-754.59	1135.8	19.767	-782.6	1001.1	-29.249	-314.41	37.249	46.664	-649.08	1557.6	117.49	-815.37	1109.2	-186.12
262	1.31	-512.65	1640.3	78.157	-511.2	1632.9	-21.67	-495.32	1375.8	46.731	-425.45	1218.3	47.17	-521.79	952.82	-131.17	-556.63	960.24	233.47	-620.49	1452.8	213.37	-617.47	1287.2	336.07	-567.9	1153.4	399.39	-595.4	1063.6	304.16	-480.71	1028.8	412.41	-412.64	931.25	341.94	-421.89	931.52	423.4	-354.57	873.44	392.35	-603.12	1449.8	-136.8	-673.47	1295	-230.18	-731.07	1140.6	-279.06	-748.1	1000.4	-289.53	-733.47	868.53	-227.75	-783.54	864.06	-283.89	-755.78	779.72	-255.32	-660.09	661.21	217.25	-766.72	343.18	112.39	-831.01	272.24	156.22	-523.74	734.7	-158.53	-450.46	582.94	-124.95	-437.29	687.28	-125.3	-405.7	508.56	36.058	-324.14	420.08	-66.707	-327.51	319.92	-96.405	-294.5	342.99	-49.058	-126.53	109.42	-29.119	-93.853	129.38	-74.546	-437.64	500.6	-118.56	-178.34	58.327	-87.951	-732.65	585.76	210.44	-270.82	260.57	-31.985	-810.61	269.11	98.85	-854.16	196.18	84.772	-772.72	487.75	37.037	-488.29	659.33	-142.57	-717.42	668.55	227.02	-788.78	23.854	87.9	-703.48	752.77	244.51	-948.42	95.988	16.132	-780.59	475.88	191.73	-653.26	1540.9	-29.354	-838.07	24.756	51.963	-1051.3	80.338	51.378	-754.41	1325.4	148.6	-257.14	105.28	59.703	-290.44	78.612	-18.037	-797.53	1009.4	49.355	-690.41	1450.7	39.831	-747.47	1134.5	19.444	-775.31	999.75	-29.628	-312.23	36.195	47.721	-642	1556.4	116.41	-808.85	1108.2	-186.9
263	1.315	-505.56	1639.2	77.072	-504.07	1631.7	-22.755	-488.04	1374.6	45.902	-418.3	1217.1	46.726	-514.11	951.57	-131.23	-549.79	959.26	233.08	-613.39	1451.9	212.36	-610.12	1286.6	335.33	-560.59	1152.9	398.77	-588	1062.8	303.68	-473.18	1028.6	411.83	-404.86	931.14	341.35	-414.05	931.42	422.82	-346.53	873.66	391.78	-595.78	1448.3	-137.76	-666.29	1293.5	-231	-724.19	1139.2	-279.77	-741.6	999.03	-290.09	-727.45	867.2	-228.14	-777.48	862.82	-284.34	-750.06	778.44	-255.59	-655.01	660.23	217.43	-763.48	342.52	112.47	-828.58	272.27	156.22	-514.99	734.39	-158.18	-441.82	582.6	-124.68	-428.64	686.93	-124.78	-398.31	507.71	36.268	-316.51	418.8	-65.632	-320.63	318.68	-95.44	-287.85	341.42	-47.777	-122.97	105.12	-26.857	-89.77	124.89	-71.742	-429.08	500.31	-118.49	-175.6	55.587	-86.246	-727.94	585.14	210.37	-265.26	258.72	-30.502	-808.08	268.86	98.925	-852.33	196.38	84.805	-767.76	487.13	36.975	-479.59	659.04	-142.18	-712.33	667.86	226.95	-788.67	23.808	87.976	-698.01	752.02	244.49	-947.49	97.104	16.13	-776.5	475.55	191.7	-646.07	1539.7	-30.418	-837.97	24.755	51.995	-1050.6	82.497	51.287	-747.37	1324.5	147.67	-254.2	103.12	61.118	-287.33	77.17	-16.998	-790.4	1008.2	48.746	-683.28	1449.6	38.742	-740.32	1133.3	19.184	-768.01	998.51	-29.984	-310.32	35.353	48.619	-634.87	1555.2	115.28	-802.24	1107.1	-187.71
264	1.32	-498.43	1638.2	75.939	-496.9	1630.6	-23.886	-480.71	1373.3	45.037	-411.09	1215.9	46.254	-506.45	950.39	-131.29	-542.88	958.32	232.68	-606.24	1451.1	211.32	-602.74	1286	334.56	-553.3	1152.4	398.11	-580.66	1062.2	303.18	-465.71	1028.4	411.22	-397.17	931.04	340.74	-406.32	931.33	422.2	-338.62	873.87	391.18	-588.42	1446.8	-138.76	-659.08	1292	-231.82	-717.24	1137.8	-280.5	-735.01	997.65	-290.68	-721.3	865.85	-228.57	-771.29	861.57	-284.84	-744.21	777.14	-255.93	-649.83	659.29	217.6	-760.14	341.91	112.57	-826.05	272.38	156.24	-506.27	734.21	-157.85	-433.22	582.38	-124.51	-420.03	686.7	-124.31	-391.05	506.94	36.367	-308.94	417.62	-64.693	-313.84	317.56	-94.624	-281.26	339.95	-46.649	-119.58	100.69	-24.817	-85.857	120.2	-69.152	-420.56	500.15	-118.52	-173.11	52.808	-84.723	-723.12	584.56	210.29	-259.78	256.97	-29.198	-805.46	268.67	99.015	-850.42	196.66	84.849	-762.66	486.54	36.913	-470.92	658.88	-141.87	-707.12	667.21	226.87	-788.57	23.765	88.043	-692.44	751.31	244.45	-946.49	98.317	16.151	-772.29	475.25	191.67	-638.83	1538.4	-31.52	-837.86	24.747	52.021	-1049.8	84.821	51.207	-740.28	1323.7	146.74	-251.38	101.09	62.34	-284.4	75.881	-16.138	-783.21	1007	48.158	-676.1	1448.5	37.621	-733.15	1132.2	18.991	-760.68	997.38	-30.321	-308.63	34.753	49.357	-627.7	1554.1	114.11	-795.55	1106	-188.53
